name C:\Users\antoi\Documents\MyRepositories\upper-imu-dc\Results\main_tracking\Case_76\FLX01_orientations_groundFrame.mot
datacolumns 13
datarows 43
range 2.01000000 2.43000000
endheader 
time	radius_imu_[0][0]	radius_imu_[0][1]	radius_imu_[0][2]	radius_imu_[1][0]	radius_imu_[1][1]	radius_imu_[1][2]	radius_imu_[2][0]	radius_imu_[2][1]	radius_imu_[2][2]	radius_imu_x	radius_imu_y	radius_imu_z	
          2.01000000	          0.41719892	         -0.87057034	         -0.26086844	         -0.36643416	         -0.42381160	          0.82831741	         -0.83166764	         -0.24998202	         -0.49582045	         -2.11017658	         -0.26392169	          1.12390656	
          2.02000000	          0.42475881	         -0.86493326	         -0.26733951	         -0.36769836	         -0.43467423	          0.82210476	         -0.82727134	         -0.25089594	         -0.50266625	         -2.11958384	         -0.27063099	          1.11430327	
          2.03000000	          0.43236225	         -0.85918524	         -0.27361215	         -0.36888550	         -0.44542576	          0.81579371	         -0.82279182	         -0.25178685	         -0.50952626	         -2.12909164	         -0.27714650	          1.10457321	
          2.04000000	          0.43999158	         -0.85333363	         -0.27969471	         -0.36998496	         -0.45606243	          0.80939372	         -0.81824112	         -0.25264358	         -0.51638424	         -2.13868153	         -0.28347611	          1.09473493	
          2.05000000	          0.44762928	         -0.84738565	         -0.28559690	         -0.37098528	         -0.46658079	          0.80291487	         -0.81363257	         -0.25345596	         -0.52322282	         -2.14833353	         -0.28962921	          1.08480698	
          2.06000000	          0.45525829	         -0.84134834	         -0.29132948	         -0.37187473	         -0.47697774	          0.79636764	         -0.80898027	         -0.25421490	         -0.53002425	         -2.15802699	         -0.29561631	          1.07480747	
          2.07000000	          0.46286250	         -0.83522836	         -0.29690384	         -0.37264209	         -0.48725063	          0.78976243	         -0.80429856	         -0.25491254	         -0.53677129	         -2.16774163	         -0.30144864	          1.06475356	
          2.08000000	          0.47042724	         -0.82903191	         -0.30233144	         -0.37327742	         -0.49739744	          0.78310903	         -0.79960127	         -0.25554232	         -0.54344819	         -2.17745868	         -0.30713761	          1.05466090	
          2.09000000	          0.47793982	         -0.82276452	         -0.30762326	         -0.37377281	         -0.50741684	          0.77641615	         -0.79490089	         -0.25609898	         -0.55004172	         -2.18716211	         -0.31269415	          1.04454307	
          2.10000000	          0.48539011	         -0.81643093	         -0.31278903	         -0.37412317	         -0.51730834	          0.76969081	         -0.79020775	         -0.25657868	         -0.55654208	         -2.19683980	         -0.31812799	          1.03441092	
          2.11000000	          0.49277104	         -0.81003494	         -0.31783659	         -0.37432672	         -0.52707228	          0.76293795	         -0.78552926	         -0.25697900	         -0.56294367	         -2.20648439	         -0.32344689	          1.02427209	
          2.12000000	          0.50007897	         -0.80357932	         -0.32277129	         -0.37438519	         -0.53670988	          0.75616019	         -0.78086923	         -0.25729902	         -0.56924552	         -2.21609388	         -0.32865603	          1.01413057	
          2.13000000	          0.50731382	         -0.79706578	         -0.32759554	         -0.37430376	         -0.54622308	          0.74935775	         -0.77622767	         -0.25753930	         -0.57545123	         -2.22567165	         -0.33375756	          1.00398662	
          2.14000000	          0.51447896	         -0.79049497	         -0.33230875	         -0.37409048	         -0.55561449	          0.74252868	         -0.77160074	         -0.25770185	         -0.58156861	         -2.23522591	         -0.33875038	          0.99383685	
          2.15000000	          0.52158081	         -0.78386660	         -0.33690743	         -0.37375548	         -0.56488713	          0.73566934	         -0.76698129	         -0.25779001	         -0.58760872	         -2.24476867	         -0.34363037	          0.98367472	
          2.16000000	          0.52862820	         -0.77717953	         -0.34138571	         -0.37330985	         -0.57404428	          0.72877495	         -0.76235948	         -0.25780834	         -0.59358477	         -2.25431441	         -0.34839078	          0.97349112	
          2.17000000	          0.53563170	         -0.77043196	         -0.34573585	         -0.37276462	         -0.58308929	          0.72184030	         -0.75772371	         -0.25776245	         -0.59951089	         -2.26387860	         -0.35302289	          0.96327513	
          2.18000000	          0.54260288	         -0.76362151	         -0.34994899	         -0.37212983	         -0.59202544	          0.71486031	         -0.75306142	         -0.25765881	         -0.60540106	         -2.27347640	         -0.35751665	          0.95301475	
          2.19000000	          0.54955360	         -0.75674550	         -0.35401567	         -0.37141383	         -0.60085579	          0.70783054	         -0.74835994	         -0.25750451	         -0.61126821	         -2.28312156	         -0.36186137	          0.94269768	
          2.20000000	          0.55649537	         -0.74980103	         -0.35792643	         -0.37062290	         -0.60958306	          0.70074757	         -0.74360713	         -0.25730705	         -0.61712358	         -2.29282560	         -0.36604625	          0.93231192	
          2.21000000	          0.56343875	         -0.74278530	         -0.36167219	         -0.36976105	         -0.61820946	          0.69360928	         -0.73879195	         -0.25707406	         -0.62297623	         -2.30259721	         -0.37006088	          0.92184652	
          2.22000000	          0.57039285	         -0.73569579	         -0.36524470	         -0.36883004	         -0.62673661	          0.68641505	         -0.73390489	         -0.25681302	         -0.62883279	         -2.31244189	         -0.37389566	          0.91129215	
          2.23000000	          0.57736489	         -0.72853055	         -0.36863671	         -0.36782964	         -0.63516539	          0.67916588	         -0.72893837	         -0.25653102	         -0.63469732	         -2.32236176	         -0.37754201	          0.90064158	
          2.24000000	          0.58435998	         -0.72128834	         -0.37184209	         -0.36675790	         -0.64349588	          0.67186434	         -0.72388677	         -0.25623461	         -0.64057144	         -2.33235563	         -0.38099261	          0.88989004	
          2.25000000	          0.59138114	         -0.71396882	         -0.37485580	         -0.36561169	         -0.65172733	          0.66451455	         -0.71874644	         -0.25592971	         -0.64645460	         -2.34241933	         -0.38424123	          0.87903526	
          2.26000000	          0.59842944	         -0.70657258	         -0.37767366	         -0.36438719	         -0.65985813	          0.65712192	         -0.71351537	         -0.25562166	         -0.65234453	         -2.35254616	         -0.38728259	          0.86807743	
          2.27000000	          0.60550433	         -0.69910120	         -0.38029202	         -0.36308040	         -0.66788590	          0.64969304	         -0.70819286	         -0.25531536	         -0.65823775	         -2.36272740	         -0.39011202	          0.85701888	
          2.28000000	          0.61260398	         -0.69155722	         -0.38270744	         -0.36168759	         -0.67580747	          0.64223543	         -0.70277910	         -0.25501545	         -0.66413000	         -2.37295283	         -0.39272507	          0.84586385	
          2.29000000	          0.61972560	         -0.68394411	         -0.38491639	         -0.36020553	         -0.68361895	          0.63475751	         -0.69727480	         -0.25472647	         -0.67001662	         -2.38321107	         -0.39511723	          0.83461818	
          2.30000000	          0.62686564	         -0.67626632	         -0.38691514	         -0.35863175	         -0.69131580	          0.62726847	         -0.69168109	         -0.25445300	         -0.67589270	         -2.39348971	         -0.39728382	          0.82328921	
          2.31000000	          0.63401982	         -0.66852921	         -0.38869984	         -0.35696445	         -0.69889284	          0.61977833	         -0.68599945	         -0.25419971	         -0.68175307	         -2.40377534	         -0.39922005	          0.81188571	
          2.32000000	          0.64118300	         -0.66073909	         -0.39026684	         -0.35520247	         -0.70634442	          0.61229794	         -0.68023199	         -0.25397128	         -0.68759220	         -2.41405340	         -0.40092140	          0.80041797	
          2.33000000	          0.64834906	         -0.65290321	         -0.39161320	         -0.35334502	         -0.71366452	          0.60483903	         -0.67438179	         -0.25377224	         -0.69340382	         -2.42430793	         -0.40238417	          0.78889797	
          2.34000000	          0.65551055	         -0.64502970	         -0.39273732	         -0.35139149	         -0.72084693	          0.59741419	         -0.66845339	         -0.25360676	         -0.69918072	         -2.43452144	         -0.40360619	          0.77733949	
          2.35000000	          0.66265861	         -0.63712747	         -0.39363961	         -0.34934126	         -0.72788549	          0.59003677	         -0.66245320	         -0.25347839	         -0.70491451	         -2.44467488	         -0.40458752	          0.76575812	
          2.36000000	          0.66978288	         -0.62920609	         -0.39432296	         -0.34719363	         -0.73477430	          0.58272061	         -0.65638973	         -0.25338986	         -0.71059559	         -2.45474789	         -0.40533100	          0.75417111	
          2.37000000	          0.67687165	         -0.62127552	         -0.39479298	         -0.34494782	         -0.74150798	          0.57547972	         -0.65027361	         -0.25334293	         -0.71621337	         -2.46471927	         -0.40584252	          0.74259703	
          2.38000000	          0.68391225	         -0.61334589	         -0.39505805	         -0.34260311	         -0.74808191	          0.56832787	         -0.64411734	         -0.25333827	         -0.72175659	         -2.47456769	         -0.40613104	          0.73105518	
          2.39000000	          0.69089147	         -0.60542718	         -0.39512897	         -0.34015903	         -0.75449239	          0.56127807	         -0.63793480	         -0.25337554	         -0.72721388	         -2.48427250	         -0.40620825	          0.71956497	
          2.40000000	          0.69779616	         -0.59752891	         -0.39501862	         -0.33761556	         -0.76073688	          0.55434207	         -0.63174065	         -0.25345333	         -0.73257434	         -2.49381466	         -0.40608812	          0.70814520	
          2.41000000	          0.70461371	         -0.58965993	         -0.39474129	         -0.33497343	         -0.76681406	          0.54752990	         -0.62554962	         -0.25356923	         -0.73782811	         -2.50317753	         -0.40578626	          0.69681340	
          2.42000000	          0.71133249	         -0.58182815	         -0.39431219	         -0.33223423	         -0.77272393	          0.54084946	         -0.61937591	         -0.25371979	         -0.74296686	         -2.51234761	         -0.40531928	          0.68558536	
          2.43000000	          0.71794222	         -0.57404039	         -0.39374686	         -0.32940056	         -0.77846781	          0.53430622	         -0.61323261	         -0.25390056	         -0.74798414	         -2.52131499	         -0.40470419	          0.67447472	
